<svg xmlns="http://www.w3.org/2000/svg" width="1400" height="93" viewBox="0 0 1400 93" fill="none"><g opacity="0.2"><path d="M102.365 1.28892V91.7713H80.3466V37.5076L60.1312 91.7713H42.3622L22.0181 37.3787V91.7713H0V1.28892H26.0096L51.3755 63.9306L76.4838 1.28892H102.365Z" fill="url(#paint0_linear_271_360)"></path><path d="M174.467 75.7886H140.731L135.323 91.7713H112.275L144.98 1.28892H170.475L203.18 91.7713H179.875L174.467 75.7886ZM168.801 58.7749L157.599 25.6496L146.526 58.7749H168.801Z" fill="url(#paint1_linear_271_360)"></path><path d="M235.152 1.28892V91.7713H213.134V1.28892H235.152Z" fill="url(#paint2_linear_271_360)"></path><path d="M293.857 92.6735C285.359 92.6735 277.547 90.6972 270.422 86.7445C263.384 82.7918 257.761 77.2924 253.555 70.2463C249.434 63.1142 247.374 55.1229 247.374 46.2723C247.374 37.4217 249.434 29.4734 253.555 22.4272C257.761 15.3811 263.384 9.88174 270.422 5.92904C277.547 1.97635 285.359 0 293.857 0C302.355 0 310.124 1.97635 317.163 5.92904C324.287 9.88174 329.867 15.3811 333.901 22.4272C338.022 29.4734 340.082 37.4217 340.082 46.2723C340.082 55.1229 338.022 63.1142 333.901 70.2463C329.781 77.2924 324.201 82.7918 317.163 86.7445C310.124 90.6972 302.355 92.6735 293.857 92.6735ZM293.857 72.5663C301.067 72.5663 306.819 70.1603 311.111 65.3484C315.489 60.5364 317.678 54.1777 317.678 46.2723C317.678 38.281 315.489 31.9223 311.111 27.1963C306.819 22.3843 301.067 19.9783 293.857 19.9783C286.56 19.9783 280.723 22.3413 276.345 27.0674C272.053 31.7934 269.907 38.1951 269.907 46.2723C269.907 54.2636 272.053 60.6653 276.345 65.4773C280.723 70.2033 286.56 72.5663 293.857 72.5663Z" fill="url(#paint3_linear_271_360)"></path><path d="M398.428 91.7713L379.629 57.6148H374.349V91.7713H352.331V1.28892H389.286C396.41 1.28892 402.462 2.53488 407.441 5.02679C412.505 7.51871 416.282 10.9558 418.772 15.3382C421.261 19.6346 422.506 24.4466 422.506 29.7741C422.506 35.7891 420.789 41.1596 417.355 45.8856C414.008 50.6117 409.029 53.9629 402.419 55.9392L423.278 91.7713H398.428ZM374.349 42.0189H387.998C392.032 42.0189 395.037 41.0307 397.011 39.0543C399.071 37.078 400.101 34.2853 400.101 30.6763C400.101 27.2392 399.071 24.5325 397.011 22.5561C395.037 20.5798 392.032 19.5916 387.998 19.5916H374.349V42.0189Z" fill="url(#paint4_linear_271_360)"></path><path d="M519.882 75.7886H486.147L480.739 91.7713H457.691L490.396 1.28892H515.89L548.596 91.7713H525.29L519.882 75.7886ZM514.217 58.7749L503.014 25.6496L491.941 58.7749H514.217Z" fill="url(#paint5_linear_271_360)"></path><path d="M554.815 46.4012C554.815 37.4647 556.747 29.5163 560.61 22.5561C564.472 15.51 569.837 10.0536 576.705 6.18682C583.658 2.23413 591.512 0.257781 600.268 0.257781C610.998 0.257781 620.183 3.09341 627.823 8.76467C635.462 14.4359 640.57 22.1695 643.145 31.9653H618.938C617.135 28.1844 614.56 25.3058 611.213 23.3295C607.951 21.3531 604.217 20.365 600.01 20.365C593.229 20.365 587.735 22.728 583.529 27.454C579.323 32.1801 577.22 38.4958 577.22 46.4012C577.22 54.3066 579.323 60.6223 583.529 65.3484C587.735 70.0744 593.229 72.4374 600.01 72.4374C604.217 72.4374 607.951 71.4493 611.213 69.4729C614.56 67.4966 617.135 64.618 618.938 60.8371H643.145C640.57 70.6329 635.462 78.3665 627.823 84.0377C620.183 89.6231 610.998 92.4157 600.268 92.4157C591.512 92.4157 583.658 90.4824 576.705 86.6156C569.837 82.6629 564.472 77.2065 560.61 70.2463C556.747 63.2861 554.815 55.3377 554.815 46.4012Z" fill="url(#paint6_linear_271_360)"></path><path d="M678.647 18.9472V37.2499H708.133V54.2636H678.647V74.113H711.996V91.7713H656.629V1.28892H711.996V18.9472H678.647Z" fill="url(#paint7_linear_271_360)"></path><path d="M748.308 74.7575H777.151V91.7713H726.29V1.28892H748.308V74.7575Z" fill="url(#paint8_linear_271_360)"></path><path d="M809.671 18.9472V37.2499H839.157V54.2636H809.671V74.113H843.02V91.7713H787.653V1.28892H843.02V18.9472H809.671Z" fill="url(#paint9_linear_271_360)"></path><path d="M903.411 91.7713L884.612 57.6148H879.332V91.7713H857.314V1.28892H894.269C901.393 1.28892 907.445 2.53488 912.424 5.02679C917.488 7.51871 921.265 10.9558 923.755 15.3382C926.244 19.6346 927.489 24.4466 927.489 29.7741C927.489 35.7891 925.772 41.1596 922.338 45.8856C918.991 50.6117 914.012 53.9629 907.402 55.9392L928.261 91.7713H903.411ZM879.332 42.0189H892.981C897.015 42.0189 900.02 41.0307 901.994 39.0543C904.054 37.078 905.084 34.2853 905.084 30.6763C905.084 27.2392 904.054 24.5325 901.994 22.5561C900.02 20.5798 897.015 19.5916 892.981 19.5916H879.332V42.0189Z" fill="url(#paint10_linear_271_360)"></path><path d="M997.579 75.7886H963.844L958.436 91.7713H935.387L968.093 1.28892H993.587L1026.29 91.7713H1002.99L997.579 75.7886ZM991.913 58.7749L980.711 25.6496L969.638 58.7749H991.913Z" fill="url(#paint11_linear_271_360)"></path><path d="M1070.11 1.28892C1079.64 1.28892 1087.97 3.17934 1095.09 6.96018C1102.21 10.741 1107.71 16.0686 1111.57 22.9428C1115.52 29.7311 1117.49 37.5936 1117.49 46.5301C1117.49 55.3807 1115.52 63.2431 1111.57 70.1174C1107.71 76.9916 1102.17 82.3192 1094.96 86.1C1087.84 89.8809 1079.55 91.7713 1070.11 91.7713H1036.25V1.28892H1070.11ZM1068.69 72.6952C1077.02 72.6952 1083.5 70.4181 1088.14 65.8639C1092.77 61.3097 1095.09 54.8651 1095.09 46.5301C1095.09 38.1951 1092.77 31.7075 1088.14 27.0674C1083.5 22.4272 1077.02 20.1072 1068.69 20.1072H1058.26V72.6952H1068.69Z" fill="url(#paint12_linear_271_360)"></path><path d="M1172.55 92.6735C1164.05 92.6735 1156.24 90.6972 1149.11 86.7445C1142.07 82.7918 1136.45 77.2924 1132.25 70.2463C1128.12 63.1142 1126.06 55.1229 1126.06 46.2723C1126.06 37.4217 1128.12 29.4734 1132.25 22.4272C1136.45 15.3811 1142.07 9.88174 1149.11 5.92904C1156.24 1.97635 1164.05 0 1172.55 0C1181.05 0 1188.81 1.97635 1195.85 5.92904C1202.98 9.88174 1208.56 15.3811 1212.59 22.4272C1216.71 29.4734 1218.77 37.4217 1218.77 46.2723C1218.77 55.1229 1216.71 63.1142 1212.59 70.2463C1208.47 77.2924 1202.89 82.7918 1195.85 86.7445C1188.81 90.6972 1181.05 92.6735 1172.55 92.6735ZM1172.55 72.5663C1179.76 72.5663 1185.51 70.1603 1189.8 65.3484C1194.18 60.5364 1196.37 54.1777 1196.37 46.2723C1196.37 38.281 1194.18 31.9223 1189.8 27.1963C1185.51 22.3843 1179.76 19.9783 1172.55 19.9783C1165.25 19.9783 1159.41 22.3413 1155.04 27.0674C1150.74 31.7934 1148.6 38.1951 1148.6 46.2723C1148.6 54.2636 1150.74 60.6653 1155.04 65.4773C1159.41 70.2033 1165.25 72.5663 1172.55 72.5663Z" fill="url(#paint13_linear_271_360)"></path><path d="M1277.12 91.7713L1258.32 57.6148H1253.04V91.7713H1231.02V1.28892H1267.98C1275.1 1.28892 1281.15 2.53488 1286.13 5.02679C1291.2 7.51871 1294.97 10.9558 1297.46 15.3382C1299.95 19.6346 1301.2 24.4466 1301.2 29.7741C1301.2 35.7891 1299.48 41.1596 1296.05 45.8856C1292.7 50.6117 1287.72 53.9629 1281.11 55.9392L1301.97 91.7713H1277.12ZM1253.04 42.0189H1266.69C1270.72 42.0189 1273.73 41.0307 1275.7 39.0543C1277.76 37.078 1278.79 34.2853 1278.79 30.6763C1278.79 27.2392 1277.76 24.5325 1275.7 22.5561C1273.73 20.5798 1270.72 19.5916 1266.69 19.5916H1253.04V42.0189Z" fill="url(#paint14_linear_271_360)"></path><path d="M1371.29 75.7886H1337.55L1332.14 91.7713H1309.09L1341.8 1.28892H1367.29L1400 91.7713H1376.69L1371.29 75.7886ZM1365.62 58.7749L1354.42 25.6496L1343.35 58.7749H1365.62Z" fill="url(#paint15_linear_271_360)"></path></g><defs><linearGradient id="paint0_linear_271_360" x1="700" y1="0" x2="700" y2="129" gradientUnits="userSpaceOnUse"><stop stop-color="#05DDCD"></stop><stop offset="1" stop-color="#03776E" stop-opacity="0"></stop></linearGradient><linearGradient id="paint1_linear_271_360" x1="700" y1="0" x2="700" y2="129" gradientUnits="userSpaceOnUse"><stop stop-color="#05DDCD"></stop><stop offset="1" stop-color="#03776E" stop-opacity="0"></stop></linearGradient><linearGradient id="paint2_linear_271_360" x1="700" y1="0" x2="700" y2="129" gradientUnits="userSpaceOnUse"><stop stop-color="#05DDCD"></stop><stop offset="1" stop-color="#03776E" stop-opacity="0"></stop></linearGradient><linearGradient id="paint3_linear_271_360" x1="700" y1="0" x2="700" y2="129" gradientUnits="userSpaceOnUse"><stop stop-color="#05DDCD"></stop><stop offset="1" stop-color="#03776E" stop-opacity="0"></stop></linearGradient><linearGradient id="paint4_linear_271_360" x1="700" y1="0" x2="700" y2="129" gradientUnits="userSpaceOnUse"><stop stop-color="#05DDCD"></stop><stop offset="1" stop-color="#03776E" stop-opacity="0"></stop></linearGradient><linearGradient id="paint5_linear_271_360" x1="700" y1="0" x2="700" y2="129" gradientUnits="userSpaceOnUse"><stop stop-color="#05DDCD"></stop><stop offset="1" stop-color="#03776E" stop-opacity="0"></stop></linearGradient><linearGradient id="paint6_linear_271_360" x1="700" y1="0" x2="700" y2="129" gradientUnits="userSpaceOnUse"><stop stop-color="#05DDCD"></stop><stop offset="1" stop-color="#03776E" stop-opacity="0"></stop></linearGradient><linearGradient id="paint7_linear_271_360" x1="700" y1="0" x2="700" y2="129" gradientUnits="userSpaceOnUse"><stop stop-color="#05DDCD"></stop><stop offset="1" stop-color="#03776E" stop-opacity="0"></stop></linearGradient><linearGradient id="paint8_linear_271_360" x1="700" y1="0" x2="700" y2="129" gradientUnits="userSpaceOnUse"><stop stop-color="#05DDCD"></stop><stop offset="1" stop-color="#03776E" stop-opacity="0"></stop></linearGradient><linearGradient id="paint9_linear_271_360" x1="700" y1="0" x2="700" y2="129" gradientUnits="userSpaceOnUse"><stop stop-color="#05DDCD"></stop><stop offset="1" stop-color="#03776E" stop-opacity="0"></stop></linearGradient><linearGradient id="paint10_linear_271_360" x1="700" y1="0" x2="700" y2="129" gradientUnits="userSpaceOnUse"><stop stop-color="#05DDCD"></stop><stop offset="1" stop-color="#03776E" stop-opacity="0"></stop></linearGradient><linearGradient id="paint11_linear_271_360" x1="700" y1="0" x2="700" y2="129" gradientUnits="userSpaceOnUse"><stop stop-color="#05DDCD"></stop><stop offset="1" stop-color="#03776E" stop-opacity="0"></stop></linearGradient><linearGradient id="paint12_linear_271_360" x1="700" y1="0" x2="700" y2="129" gradientUnits="userSpaceOnUse"><stop stop-color="#05DDCD"></stop><stop offset="1" stop-color="#03776E" stop-opacity="0"></stop></linearGradient><linearGradient id="paint13_linear_271_360" x1="700" y1="0" x2="700" y2="129" gradientUnits="userSpaceOnUse"><stop stop-color="#05DDCD"></stop><stop offset="1" stop-color="#03776E" stop-opacity="0"></stop></linearGradient><linearGradient id="paint14_linear_271_360" x1="700" y1="0" x2="700" y2="129" gradientUnits="userSpaceOnUse"><stop stop-color="#05DDCD"></stop><stop offset="1" stop-color="#03776E" stop-opacity="0"></stop></linearGradient><linearGradient id="paint15_linear_271_360" x1="700" y1="0" x2="700" y2="129" gradientUnits="userSpaceOnUse"><stop stop-color="#05DDCD"></stop><stop offset="1" stop-color="#03776E" stop-opacity="0"></stop></linearGradient></defs></svg>